<?xml version="1.0" encoding="UTF-8" standalone="no"?>
<!-- Created with Inkscape (http://www.inkscape.org/) -->

<svg
   xmlns:dc="http://purl.org/dc/elements/1.1/"
   xmlns:cc="http://creativecommons.org/ns#"
   xmlns:rdf="http://www.w3.org/1999/02/22-rdf-syntax-ns#"
   xmlns:svg="http://www.w3.org/2000/svg"
   xmlns="http://www.w3.org/2000/svg"
   xmlns:sodipodi="http://sodipodi.sourceforge.net/DTD/sodipodi-0.dtd"
   xmlns:inkscape="http://www.inkscape.org/namespaces/inkscape"
   width="210mm"
   height="297mm"
   viewBox="0 0 210 297"
   version="1.1"
   id="svg8"
   inkscape:version="0.92.2 (5c3e80d, 2017-08-06)"
   sodipodi:docname="logo.svg">
  <defs
     id="defs2" />
  <sodipodi:namedview
     id="base"
     pagecolor="#ffffff"
     bordercolor="#666666"
     borderopacity="1.0"
     inkscape:pageopacity="0.0"
     inkscape:pageshadow="2"
     inkscape:zoom="0.25"
     inkscape:cx="53.656377"
     inkscape:cy="550.4671"
     inkscape:document-units="mm"
     inkscape:current-layer="layer1"
     showgrid="false"
     inkscape:window-width="1280"
     inkscape:window-height="800"
     inkscape:window-x="0"
     inkscape:window-y="0"
     inkscape:window-maximized="0" />
  <metadata
     id="metadata5">
    <rdf:RDF>
      <cc:Work
         rdf:about="">
        <dc:format>image/svg+xml</dc:format>
        <dc:type
           rdf:resource="http://purl.org/dc/dcmitype/StillImage" />
        <dc:title></dc:title>
      </cc:Work>
    </rdf:RDF>
  </metadata>
  <g
     inkscape:label="Camada 1"
     inkscape:groupmode="layer"
     id="layer1">
    <g
       id="g835"
       transform="matrix(0.26458333,0,0,0.26458333,-137.50774,-17.400594)" />
    <g
       id="g837"
       transform="matrix(0.26458333,0,0,0.26458333,-137.50774,-17.400594)" />
    <g
       id="g839"
       transform="matrix(0.26458333,0,0,0.26458333,-137.50774,-17.400594)" />
    <g
       id="g841"
       transform="matrix(0.26458333,0,0,0.26458333,-137.50774,-17.400594)" />
    <g
       id="g843"
       transform="matrix(0.26458333,0,0,0.26458333,-137.50774,-17.400594)" />
    <g
       id="g845"
       transform="matrix(0.26458333,0,0,0.26458333,-137.50774,-17.400594)" />
    <g
       id="g847"
       transform="matrix(0.26458333,0,0,0.26458333,-137.50774,-17.400594)" />
    <g
       id="g849"
       transform="matrix(0.26458333,0,0,0.26458333,-137.50774,-17.400594)" />
    <g
       id="g851"
       transform="matrix(0.26458333,0,0,0.26458333,-137.50774,-17.400594)" />
    <g
       id="g853"
       transform="matrix(0.26458333,0,0,0.26458333,-137.50774,-17.400594)" />
    <g
       id="g855"
       transform="matrix(0.26458333,0,0,0.26458333,-137.50774,-17.400594)" />
    <g
       id="g857"
       transform="matrix(0.26458333,0,0,0.26458333,-137.50774,-17.400594)" />
    <g
       id="g859"
       transform="matrix(0.26458333,0,0,0.26458333,-137.50774,-17.400594)" />
    <g
       id="g861"
       transform="matrix(0.26458333,0,0,0.26458333,-137.50774,-17.400594)" />
    <g
       id="g863"
       transform="matrix(0.26458333,0,0,0.26458333,-137.50774,-17.400594)" />
    <g
       id="g2389">
      <rect
         inkscape:export-ydpi="27.09"
         inkscape:export-xdpi="27.09"
         y="54.170261"
         x="12.303727"
         height="179.85564"
         width="179.85573"
         id="rect924"
         style="opacity:1;fill:#41596b;fill-opacity:1;stroke:none;stroke-width:5.19698238;stroke-linejoin:round;stroke-miterlimit:4;stroke-dasharray:none;stroke-opacity:1" />
      <g
         inkscape:export-ydpi="27.09"
         inkscape:export-xdpi="27.09"
         transform="matrix(0.35397235,0,0,0.35538006,12.485772,30.085972)"
         id="g829">
        <polygon
           id="polygon825"
           points="142.9,430.55 46.6,334.25 142.9,238.05 174.8,269.95 110.5,334.25 174.8,398.65 "
           style="fill:#65c5b8" />
        <polygon
           id="polygon827"
           points="365.1,430.55 333.2,398.65 397.5,334.25 333.2,269.95 365.1,238.05 461.4,334.25 "
           style="fill:#65c5b8" />
      </g>
      <polygon
         inkscape:export-ydpi="27.09"
         inkscape:export-xdpi="27.09"
         transform="matrix(0.35397235,0,0,0.35538006,12.485772,30.085972)"
         id="polygon831"
         points="271,221.55 316.2,221.55 237,447.05 191.8,447.05 "
         style="fill:#4fbfa8" />
      <ellipse
         inkscape:export-ydpi="27.09"
         inkscape:export-xdpi="27.09"
         ry="10.661402"
         rx="10.61917"
         id="circle819"
         cy="82.702042"
         cx="34.467453"
         style="fill:#f2705b;stroke-width:0.35467547" />
      <ellipse
         inkscape:export-ydpi="27.09"
         inkscape:export-xdpi="27.09"
         ry="10.661402"
         rx="10.61917"
         id="circle821"
         cy="82.702042"
         cx="67.599274"
         style="fill:#ffd05c;stroke-width:0.35467547" />
      <ellipse
         inkscape:export-ydpi="27.09"
         inkscape:export-xdpi="27.09"
         ry="10.661402"
         rx="10.61917"
         id="circle823"
         cy="82.702042"
         cx="100.69568"
         style="fill:#89d6f7;stroke-width:0.35467547" />
    </g>
  </g>
</svg>
